Coordinates
version=1
nRows=8
nColumns=33
inDegrees=yes

Units are S.I. units (second, meters, Newtons, ...)
Angles are in degrees.

endheader
time	ground_thorax_rot_x	ground_thorax_rot_y	ground_thorax_rot_z	ground_thorax_tx	ground_thorax_ty	ground_thorax_tz	clav_prot_r	clav_elev_r	scapula_abduction_r	scapula_elevation_r	scapula_upward_rot_r	scapula_winging_r	shoulder_elv_r	plane_of_elev_r	axial_rot_r	elbow_flexion_r	pro_sup_r	wrist_flex_r	wrist_dev_r	clav_prot_l	clav_elev_l	scapula_abduction_l	scapula_elevation_l	scapula_upward_rot_l	scapula_winging_l	shoulder_elv_l	plane_of_elev_l	axial_rot_l	elbow_flexion_l	pro_sup_l	wrist_flex_l	wrist_dev_l
      1.02000000	      0.42053029	      5.85695370	     14.04091824	     -0.12117717	      1.02995121	      0.03039006	      2.76650013	      9.07059842	     15.73942117	      5.29207032	     22.78653058	     -9.64254427	     22.78956617	    -68.65548580	     51.84689472	     64.21125100	    -24.88160176	     66.12092109	    -24.99999983	     14.29575057	     -7.46293125	    -22.56771641	    -18.99412912	    -45.00000000	      2.18167773	     65.60356476	    -31.69471536	      3.50989027	     68.87328153	     18.24003206	      0.34369488	    -24.99999983
      1.03000000	      0.44544879	      5.89225653	     13.97675742	     -0.12135662	      1.03021871	      0.03041806	      2.74209207	      8.99329311	     15.85898231	      5.17076572	     22.95317076	     -9.68982330	     23.48431181	    -68.34608671	     50.98115131	     65.36600788	    -24.62080313	     62.27495066	    -24.99999983	     14.38287569	     -7.80296371	    -22.69905912	    -18.67645355	    -45.00000000	      2.25246934	     66.12212952	    -31.16099168	      4.01438690	     68.87861277	     17.55860438	      2.23408262	    -24.99999983
      1.04000000	      0.37188147	      5.85172100	     14.23859150	     -0.12133000	      1.02997819	      0.03019514	      2.73742308	      8.98930977	     16.14219864	      5.05372746	     23.29927352	     -9.81467089	     23.73549695	    -67.92655418	     50.81168699	     65.47309662	    -24.56610087	     62.11162560	    -24.99999983	     14.49228996	     -7.78157496	    -22.82905661	    -18.60788980	    -44.81369339	      2.35066708	     66.34372184	    -30.90704588	      3.94465944	     69.15181899	     17.51444997	      2.31349906	    -24.99999983
      1.05000000	      0.39048363	      5.74914167	     14.41107992	     -0.12187577	      1.02997363	      0.03016118	      2.95613849	      8.91491023	     16.43617853	      5.04222854	     23.12593198	     -9.87567765	     25.28758709	    -67.87811529	     48.79680682	     67.29222613	    -17.33921381	     50.10963291	    -24.99999983	     14.63445309	     -8.10259754	    -23.11537989	    -18.38740697	    -45.00000000	      2.46620583	     66.75403859	    -30.38711365	      4.95457220	     69.36215048	     16.01647978	      8.19400402	    -24.99999983
      1.06000000	      0.37744653	      5.79781919	     14.37192353	     -0.12172215	      1.02977840	      0.02992578	      2.92265775	      8.83163118	     16.69307538	      4.85683043	     23.47535443	     -9.98136333	     25.51358278	    -67.33112811	     48.43037561	     67.51393771	    -17.45472469	     49.82282448	    -24.99999983	     14.73367340	     -8.21223033	    -23.18196058	    -18.14714539	    -44.69531652	      2.55045527	     67.03875991	    -29.92518022	      4.99172419	     69.51582773	     16.02265595	      8.15152428	    -24.99999983
      1.07000000	      0.35418605	      5.82182194	     14.51662282	     -0.12179679	      1.02955505	      0.03001079	      2.88100823	      8.96763073	     16.87599045	      4.85184805	     23.84280669	    -10.07841654	     25.16794921	    -66.77366671	     47.22428477	     68.21793204	    -17.93993141	     44.49094085	    -24.99999983	     14.85142812	     -8.40357782	    -23.37302118	    -17.96726334	    -44.70375615	      2.64036667	     67.55943486	    -29.41710878	      5.10165542	     69.52716994	     15.97181777	      8.94512122	    -24.23737371
      1.08000000	      0.28866887	      5.55780978	     14.40375523	     -0.12190474	      1.02915799	      0.02987344	      3.07967853	      8.87415977	     17.42830868	      4.71448333	     24.01323713	    -10.25622122	     25.46219217	    -65.99628939	     45.90192638	     68.89310954	    -14.51869479	     39.00708606	    -24.99999983	     14.98282542	     -8.50204632	    -23.56944752	    -17.83955964	    -44.62980907	      2.75030828	     67.65741638	    -28.85326255	      6.02979452	     69.88957382	     15.29083796	     10.91639808	    -22.03170099
      1.09000000	      0.29630412	      5.82697221	     14.70255703	     -0.12204271	      1.02923477	      0.02981995	      2.99577538	      8.82044275	     17.45355574	      4.60728483	     24.21165085	    -10.27871292	     25.43236055	    -65.48456500	     44.69752433	     69.05307518	    -12.27280456	     33.52156500	    -24.99999983	     15.16032543	     -8.81755290	    -23.82761120	    -17.50755543	    -44.55256541	      2.89358470	     68.26122399	    -28.34538812	      5.52524313	     69.69658968	     15.05623236	     11.91683695	    -21.21984844
